<?xml version="1.0" encoding="UTF-8"?>
<svg id="Layer_2" data-name="Layer 2" xmlns="http://www.w3.org/2000/svg" xmlns:xlink="http://www.w3.org/1999/xlink" viewBox="0 0 434.03 89.89">
  <defs>
    <style>
      .cls-1 {
        fill: url(#linear-gradient);
      }

      .cls-1, .cls-2, .cls-3, .cls-4 {
        stroke-width: 0px;
      }

      .cls-2 {
        fill: #9f61ff;
      }

      .cls-3 {
        fill: #fff;
      }

      .cls-4 {
        fill: url(#linear-gradient-2);
      }
    </style>
    <linearGradient id="linear-gradient" x1=".03" y1="4.45" x2="434.03" y2="4.45" gradientUnits="userSpaceOnUse">
      <stop offset="0" stop-color="#7a75f8"/>
      <stop offset="1" stop-color="#73afff"/>
    </linearGradient>
    <linearGradient id="linear-gradient-2" y1="85.45" y2="85.45" xlink:href="#linear-gradient"/>
  </defs>
  <g id="Layer_1-2" data-name="Layer 1">
    <g>
      <path class="cls-2" d="M47.97,44.93c0,3.88-.48,7.42-1.45,10.6-.96,3.18-2.43,5.92-4.39,8.22-1.96,2.3-4.45,4.06-7.46,5.29-3.01,1.23-6.57,1.84-10.68,1.84s-7.67-.62-10.68-1.84c-3.01-1.23-5.5-2.99-7.46-5.29-1.96-2.3-3.43-5.04-4.39-8.24s-1.45-6.74-1.45-10.65c0-5.22.86-9.76,2.57-13.63,1.71-3.87,4.35-6.88,7.91-9.01,3.56-2.14,8.09-3.21,13.58-3.21s9.97,1.07,13.49,3.21c3.53,2.14,6.15,5.15,7.86,9.03,1.71,3.88,2.57,8.44,2.57,13.68ZM11.2,44.93c0,3.52.44,6.54,1.33,9.08.88,2.54,2.27,4.49,4.15,5.86,1.88,1.37,4.32,2.05,7.31,2.05s5.49-.68,7.38-2.05c1.88-1.37,3.26-3.32,4.12-5.86s1.29-5.57,1.29-9.08c0-5.28-.99-9.44-2.96-12.48-1.98-3.03-5.23-4.55-9.75-4.55-3.01,0-5.46.68-7.36,2.05s-3.29,3.32-4.17,5.86c-.88,2.54-1.33,5.58-1.33,9.12Z"/>
      <path class="cls-2" d="M80.16,19.8c4.57,0,8.35.55,11.32,1.65,2.98,1.1,5.19,2.77,6.63,5,1.45,2.23,2.17,5.04,2.17,8.44,0,2.3-.44,4.31-1.31,6.03-.87,1.72-2.02,3.18-3.45,4.38-1.42,1.2-2.96,2.17-4.62,2.93l14.82,21.95h-11.86l-12.03-19.33h-5.69v19.33h-10.68V19.8h14.68ZM79.4,28.56h-3.24v13.61h3.45c3.54,0,6.07-.59,7.6-1.78,1.53-1.18,2.29-2.92,2.29-5.22s-.82-4.09-2.46-5.1c-1.64-1.01-4.19-1.52-7.63-1.52Z"/>
      <path class="cls-2" d="M119.13,19.8h15.68c6.71,0,11.79.94,15.23,2.83,3.45,1.88,5.17,5.19,5.17,9.93,0,1.91-.3,3.63-.91,5.17-.61,1.54-1.49,2.8-2.64,3.79-1.15.99-2.55,1.63-4.2,1.93v.34c1.68.34,3.19.94,4.55,1.77,1.36.84,2.44,2.06,3.26,3.65.82,1.6,1.22,3.72,1.22,6.36,0,3.06-.75,5.68-2.24,7.86-1.49,2.18-3.62,3.85-6.39,5.01-2.77,1.16-6.06,1.74-9.87,1.74h-18.85V19.8ZM129.81,39.76h6.2c3.1,0,5.25-.49,6.44-1.46,1.19-.98,1.79-2.42,1.79-4.33s-.71-3.31-2.12-4.15-3.65-1.26-6.7-1.26h-5.62v11.2ZM129.81,48.24v13.13h6.96c3.22,0,5.46-.62,6.72-1.86,1.26-1.24,1.9-2.91,1.9-5,0-1.24-.28-2.33-.83-3.27-.55-.94-1.48-1.68-2.77-2.21-1.3-.53-3.08-.79-5.36-.79h-6.62Z"/>
      <path class="cls-2" d="M173.61,70.19V19.8h10.68v50.39h-10.68Z"/>
      <path class="cls-2" d="M233.78,56.2c0,2.99-.72,5.58-2.17,7.79-1.45,2.21-3.56,3.91-6.32,5.1-2.77,1.19-6.13,1.79-10.08,1.79-1.75,0-3.45-.12-5.12-.34-1.67-.23-3.26-.57-4.79-1.02-1.53-.45-2.98-1-4.36-1.67v-9.93c2.39,1.06,4.87,2.01,7.44,2.86,2.57.85,5.12,1.28,7.65,1.28,1.75,0,3.15-.23,4.22-.69,1.07-.46,1.84-1.09,2.33-1.9.48-.8.72-1.72.72-2.76,0-1.26-.43-2.34-1.27-3.24-.85-.9-2.02-1.74-3.5-2.52-1.48-.78-3.15-1.62-5.01-2.52-1.17-.55-2.45-1.22-3.83-2.02-1.38-.79-2.69-1.76-3.93-2.91-1.24-1.15-2.26-2.54-3.05-4.19-.79-1.64-1.19-3.61-1.19-5.91,0-3.01.69-5.58,2.07-7.72,1.38-2.14,3.35-3.77,5.91-4.91,2.56-1.14,5.59-1.71,9.08-1.71,2.62,0,5.12.31,7.5.91,2.38.61,4.87,1.49,7.46,2.64l-3.45,8.31c-2.32-.94-4.4-1.67-6.24-2.19-1.84-.52-3.71-.78-5.62-.78-1.33,0-2.47.21-3.41.64-.94.42-1.65,1.02-2.14,1.79s-.72,1.66-.72,2.67c0,1.2.35,2.2,1.05,3.02.7.82,1.76,1.6,3.17,2.36,1.41.76,3.18,1.64,5.29,2.65,2.57,1.22,4.77,2.49,6.6,3.81s3.23,2.87,4.22,4.65c.99,1.78,1.48,3.99,1.48,6.63Z"/>
    </g>
    <g>
      <path class="cls-3" d="M269.41,70.19h-10.68V28.7h-13.68v-8.89h38.05v8.89h-13.68v41.5Z"/>
      <path class="cls-3" d="M326.92,70.19h-29.02V19.8h29.02v8.75h-18.33v11.06h17.06v8.75h-17.06v12.99h18.33v8.82Z"/>
      <path class="cls-3" d="M344.49,70.19V19.8h10.68v41.56h20.44v8.82h-31.12Z"/>
      <path class="cls-3" d="M422.27,70.19l-3.65-11.99h-18.37l-3.65,11.99h-11.51l17.78-50.59h13.06l17.85,50.59h-11.51ZM416.07,49.24l-3.65-11.72c-.23-.78-.53-1.79-.91-3.02-.38-1.23-.76-2.48-1.14-3.76-.38-1.28-.68-2.38-.91-3.33-.23.94-.55,2.11-.95,3.5-.4,1.39-.79,2.71-1.16,3.95-.37,1.24-.63,2.13-.79,2.65l-3.62,11.72h13.13Z"/>
    </g>
    <g>
      <path class="cls-1" d="M.03,8.89V0h434v8.89H.03Z"/>
      <path class="cls-4" d="M.03,89.89v-8.89h434v8.89H.03Z"/>
    </g>
  </g>
</svg>