<?xml version="1.0" encoding="UTF-8"?>
<svg id="Layer_2" data-name="Layer 2" xmlns="http://www.w3.org/2000/svg" xmlns:xlink="http://www.w3.org/1999/xlink" viewBox="0 0 95.09 89.89">
  <defs>
    <style>
      .cls-1 {
        fill: url(#linear-gradient);
      }

      .cls-1, .cls-2, .cls-3, .cls-4 {
        stroke-width: 0px;
      }

      .cls-2 {
        fill: #9f61ff;
      }

      .cls-3 {
        fill: #fff;
      }

      .cls-4 {
        fill: url(#linear-gradient-2);
      }
    </style>
    <linearGradient id="linear-gradient" x1=".03" y1="4.45" x2="95.03" y2="4.45" gradientUnits="userSpaceOnUse">
      <stop offset="0" stop-color="#7a75f8"/>
      <stop offset="1" stop-color="#73afff"/>
    </linearGradient>
    <linearGradient id="linear-gradient-2" y1="85.45" y2="85.45" xlink:href="#linear-gradient"/>
  </defs>
  <g id="Layer_1-2" data-name="Layer 1">
    <path class="cls-2" d="M47.97,44.93c0,3.88-.48,7.42-1.45,10.6-.96,3.18-2.43,5.92-4.39,8.22-1.96,2.3-4.45,4.06-7.46,5.29-3.01,1.23-6.57,1.84-10.68,1.84s-7.67-.62-10.68-1.84c-3.01-1.23-5.5-2.99-7.46-5.29-1.96-2.3-3.43-5.04-4.39-8.24s-1.45-6.74-1.45-10.65c0-5.22.86-9.76,2.57-13.63,1.71-3.87,4.35-6.88,7.91-9.01,3.56-2.14,8.09-3.21,13.58-3.21s9.97,1.07,13.49,3.21c3.53,2.14,6.15,5.15,7.86,9.03,1.71,3.88,2.57,8.44,2.57,13.68ZM11.2,44.93c0,3.52.44,6.54,1.33,9.08.88,2.54,2.27,4.49,4.15,5.86,1.88,1.37,4.32,2.05,7.31,2.05s5.49-.68,7.38-2.05c1.88-1.37,3.26-3.32,4.12-5.86s1.29-5.57,1.29-9.08c0-5.28-.99-9.44-2.96-12.48-1.98-3.03-5.23-4.55-9.75-4.55-3.01,0-5.46.68-7.36,2.05s-3.29,3.32-4.17,5.86c-.88,2.54-1.33,5.58-1.33,9.12Z"/>
    <path class="cls-3" d="M81.41,70.19h-10.68V28.7h-13.68v-8.89h38.05v8.89h-13.68v41.5Z"/>
    <g>
      <path class="cls-1" d="M.03,8.89V0h95v8.89H.03Z"/>
      <path class="cls-4" d="M.03,89.89v-8.89h95v8.89H.03Z"/>
    </g>
  </g>
</svg>